<mxfile host="app.diagrams.net" modified="2020-05-14T19:09:56.208Z" agent="5.0 (Macintosh; Intel Mac OS X 10_15_1) AppleWebKit/537.36 (KHTML, like Gecko) Chrome/81.0.4044.138 Safari/537.36" etag="07JMQjSiXE3gC1gWqzbG" version="13.1.1" type="github" pages="16">
  <diagram id="_ShlFmsX2yYREbNZ5iUU" name="01 - k">
    <mxGraphModel dx="1502" dy="739" grid="1" gridSize="10" guides="1" tooltips="1" connect="1" arrows="1" fold="1" page="1" pageScale="1" pageWidth="1920" pageHeight="1200" math="0" shadow="0">
      <root>
        <mxCell id="0" />
        <mxCell id="1" parent="0" />
        <mxCell id="0De4i5si7wRLfh8kBrNq-2" value="Continuous Integration and Continuous Deployment" style="rounded=0;whiteSpace=wrap;html=1;fillColor=#dae8fc;strokeColor=#6c8ebf;fontSize=23;fontStyle=1" parent="1" vertex="1">
          <mxGeometry x="590" y="290" width="340" height="110" as="geometry" />
        </mxCell>
      </root>
    </mxGraphModel>
  </diagram>
  <diagram id="s3LU48tYfjDM0hFMd4Xd" name="02 - cicd">
    
    <mxGraphModel dx="715" dy="352" grid="1" gridSize="10" guides="1" tooltips="1" connect="1" arrows="1" fold="1" page="1" pageScale="1" pageWidth="1920" pageHeight="1200" math="0" shadow="0">
      
      <root>
        
        <mxCell id="gf-BMft5PmmeYiOlkT97-0" />
        
        <mxCell id="gf-BMft5PmmeYiOlkT97-1" parent="gf-BMft5PmmeYiOlkT97-0" />
        
        <mxCell id="gf-BMft5PmmeYiOlkT97-4" style="edgeStyle=orthogonalEdgeStyle;rounded=0;orthogonalLoop=1;jettySize=auto;html=1;exitX=1;exitY=0.5;exitDx=0;exitDy=0;fontSize=23;" edge="1" parent="gf-BMft5PmmeYiOlkT97-1" source="gf-BMft5PmmeYiOlkT97-2" target="gf-BMft5PmmeYiOlkT97-3">
          
          <mxGeometry relative="1" as="geometry" />
          
        </mxCell>
        
        <mxCell id="gf-BMft5PmmeYiOlkT97-2" value="Continuous Integration" style="rounded=0;whiteSpace=wrap;html=1;fontSize=23;fillColor=#dae8fc;strokeColor=#6c8ebf;" vertex="1" parent="gf-BMft5PmmeYiOlkT97-1">
          
          <mxGeometry x="490" y="280" width="160" height="70" as="geometry" />
          
        </mxCell>
        
        <mxCell id="gf-BMft5PmmeYiOlkT97-3" value="It should be really easy to merge in changes from multiple teams to our main codebase" style="rounded=0;whiteSpace=wrap;html=1;fontSize=17;" vertex="1" parent="gf-BMft5PmmeYiOlkT97-1">
          
          <mxGeometry x="680" y="280" width="390" height="70" as="geometry" />
          
        </mxCell>
        
        <mxCell id="gf-BMft5PmmeYiOlkT97-5" style="edgeStyle=orthogonalEdgeStyle;rounded=0;orthogonalLoop=1;jettySize=auto;html=1;exitX=1;exitY=0.5;exitDx=0;exitDy=0;fontSize=23;" edge="1" parent="gf-BMft5PmmeYiOlkT97-1" source="gf-BMft5PmmeYiOlkT97-6" target="gf-BMft5PmmeYiOlkT97-7">
          
          <mxGeometry relative="1" as="geometry" />
          
        </mxCell>
        
        <mxCell id="gf-BMft5PmmeYiOlkT97-6" value="Continuous Deployment" style="rounded=0;whiteSpace=wrap;html=1;fontSize=23;fillColor=#dae8fc;strokeColor=#6c8ebf;" vertex="1" parent="gf-BMft5PmmeYiOlkT97-1">
          
          <mxGeometry x="490" y="370" width="160" height="70" as="geometry" />
          
        </mxCell>
        
        <mxCell id="gf-BMft5PmmeYiOlkT97-7" value="We should be able to deploy our changes very easily and in an automated style" style="rounded=0;whiteSpace=wrap;html=1;fontSize=17;" vertex="1" parent="gf-BMft5PmmeYiOlkT97-1">
          
          <mxGeometry x="680" y="370" width="390" height="70" as="geometry" />
          
        </mxCell>
        
      </root>
      
    </mxGraphModel>
    
  </diagram>
  <diagram id="-FeWekupKeT9eYS5V-uh" name="06 - teams">
    
    <mxGraphModel dx="668" dy="328" grid="1" gridSize="10" guides="1" tooltips="1" connect="1" arrows="1" fold="1" page="1" pageScale="1" pageWidth="1920" pageHeight="1200" math="0" shadow="0">
      
      <root>
        
        <mxCell id="XMad-avUg9MZqP47by01-0" />
        
        <mxCell id="XMad-avUg9MZqP47by01-1" parent="XMad-avUg9MZqP47by01-0" />
        
        <mxCell id="WuwJVwtk7l4hyi2skWhx-2" style="edgeStyle=orthogonalEdgeStyle;rounded=0;orthogonalLoop=1;jettySize=auto;html=1;exitX=1;exitY=0.5;exitDx=0;exitDy=0;fontSize=19;" edge="1" parent="XMad-avUg9MZqP47by01-1" source="WuwJVwtk7l4hyi2skWhx-0">
          
          <mxGeometry relative="1" as="geometry">
            
            <mxPoint x="640" y="240" as="targetPoint" />
            
          </mxGeometry>
          
        </mxCell>
        
        <mxCell id="WuwJVwtk7l4hyi2skWhx-0" value="Team 1" style="rounded=0;whiteSpace=wrap;html=1;fontSize=19;fillColor=#dae8fc;strokeColor=#6c8ebf;fontStyle=1" vertex="1" parent="XMad-avUg9MZqP47by01-1">
          
          <mxGeometry x="460" y="210" width="120" height="60" as="geometry" />
          
        </mxCell>
        
        <mxCell id="WuwJVwtk7l4hyi2skWhx-3" style="edgeStyle=orthogonalEdgeStyle;rounded=0;orthogonalLoop=1;jettySize=auto;html=1;exitX=1;exitY=0.5;exitDx=0;exitDy=0;fontSize=19;" edge="1" parent="XMad-avUg9MZqP47by01-1" source="WuwJVwtk7l4hyi2skWhx-1">
          
          <mxGeometry relative="1" as="geometry">
            
            <mxPoint x="640" y="330" as="targetPoint" />
            
          </mxGeometry>
          
        </mxCell>
        
        <mxCell id="WuwJVwtk7l4hyi2skWhx-1" value="Team 2" style="rounded=0;whiteSpace=wrap;html=1;fontSize=19;fillColor=#dae8fc;strokeColor=#6c8ebf;fontStyle=1" vertex="1" parent="XMad-avUg9MZqP47by01-1">
          
          <mxGeometry x="460" y="300" width="120" height="60" as="geometry" />
          
        </mxCell>
        
        <mxCell id="WuwJVwtk7l4hyi2skWhx-8" style="edgeStyle=orthogonalEdgeStyle;rounded=0;orthogonalLoop=1;jettySize=auto;html=1;exitX=1;exitY=0.5;exitDx=0;exitDy=0;fontSize=19;" edge="1" parent="XMad-avUg9MZqP47by01-1" source="WuwJVwtk7l4hyi2skWhx-4" target="WuwJVwtk7l4hyi2skWhx-7">
          
          <mxGeometry relative="1" as="geometry" />
          
        </mxCell>
        
        <mxCell id="WuwJVwtk7l4hyi2skWhx-4" value="Expiration Service" style="rounded=0;whiteSpace=wrap;html=1;fontSize=19;fillColor=#f5f5f5;strokeColor=#666666;fontStyle=1;fontColor=#333333;" vertex="1" parent="XMad-avUg9MZqP47by01-1">
          
          <mxGeometry x="640" y="210" width="120" height="60" as="geometry" />
          
        </mxCell>
        
        <mxCell id="WuwJVwtk7l4hyi2skWhx-9" style="edgeStyle=orthogonalEdgeStyle;rounded=0;orthogonalLoop=1;jettySize=auto;html=1;exitX=1;exitY=0.5;exitDx=0;exitDy=0;fontSize=19;" edge="1" parent="XMad-avUg9MZqP47by01-1" source="WuwJVwtk7l4hyi2skWhx-5" target="WuwJVwtk7l4hyi2skWhx-7">
          
          <mxGeometry relative="1" as="geometry" />
          
        </mxCell>
        
        <mxCell id="WuwJVwtk7l4hyi2skWhx-5" value="Tickets Service" style="rounded=0;whiteSpace=wrap;html=1;fontSize=19;fillColor=#f5f5f5;strokeColor=#666666;fontStyle=1;fontColor=#333333;" vertex="1" parent="XMad-avUg9MZqP47by01-1">
          
          <mxGeometry x="640" y="300" width="120" height="60" as="geometry" />
          
        </mxCell>
        
        <mxCell id="WuwJVwtk7l4hyi2skWhx-6" value="Production K8S Cluster" style="rounded=0;whiteSpace=wrap;html=1;fontSize=19;fillColor=#f5f5f5;strokeColor=#666666;fontStyle=1;fontColor=#333333;" vertex="1" parent="XMad-avUg9MZqP47by01-1">
          
          <mxGeometry x="840" y="210" width="280" height="30" as="geometry" />
          
        </mxCell>
        
        <mxCell id="WuwJVwtk7l4hyi2skWhx-7" value="" style="rounded=0;whiteSpace=wrap;html=1;fontSize=19;fillColor=#f5f5f5;strokeColor=#666666;fontStyle=1;fontColor=#333333;" vertex="1" parent="XMad-avUg9MZqP47by01-1">
          
          <mxGeometry x="840" y="240" width="280" height="120" as="geometry" />
          
        </mxCell>
        
        <mxCell id="WuwJVwtk7l4hyi2skWhx-10" value="Service" style="rounded=0;whiteSpace=wrap;html=1;fontSize=19;fontStyle=2;" vertex="1" parent="XMad-avUg9MZqP47by01-1">
          
          <mxGeometry x="865" y="250" width="100" height="40" as="geometry" />
          
        </mxCell>
        
        <mxCell id="WuwJVwtk7l4hyi2skWhx-11" value="Service" style="rounded=0;whiteSpace=wrap;html=1;fontSize=19;fontStyle=2;" vertex="1" parent="XMad-avUg9MZqP47by01-1">
          
          <mxGeometry x="995" y="250" width="100" height="40" as="geometry" />
          
        </mxCell>
        
        <mxCell id="WuwJVwtk7l4hyi2skWhx-12" value="Service" style="rounded=0;whiteSpace=wrap;html=1;fontSize=19;fontStyle=2;" vertex="1" parent="XMad-avUg9MZqP47by01-1">
          
          <mxGeometry x="865" y="310" width="100" height="40" as="geometry" />
          
        </mxCell>
        
        <mxCell id="WuwJVwtk7l4hyi2skWhx-13" value="Service" style="rounded=0;whiteSpace=wrap;html=1;fontSize=19;fontStyle=2;" vertex="1" parent="XMad-avUg9MZqP47by01-1">
          
          <mxGeometry x="995" y="310" width="100" height="40" as="geometry" />
          
        </mxCell>
        
      </root>
      
    </mxGraphModel>
    
  </diagram>
  <diagram name="06 - branch" id="c6HWxRq8sJ11rEYk5pmH">
    
    <mxGraphModel dx="715" dy="352" grid="1" gridSize="10" guides="1" tooltips="1" connect="1" arrows="1" fold="1" page="1" pageScale="1" pageWidth="1920" pageHeight="1200" math="0" shadow="0">
      
      <root>
        
        <mxCell id="efef7s39hfVOoQ_E5dqr-0" />
        
        <mxCell id="efef7s39hfVOoQ_E5dqr-1" parent="efef7s39hfVOoQ_E5dqr-0" />
        
        <mxCell id="efef7s39hfVOoQ_E5dqr-39" value="" style="rounded=0;whiteSpace=wrap;html=1;fontSize=19;fontStyle=1;fillColor=#f5f5f5;strokeColor=#666666;fontColor=#333333;" vertex="1" parent="efef7s39hfVOoQ_E5dqr-1">
          
          <mxGeometry x="750" y="460" width="260" height="500" as="geometry" />
          
        </mxCell>
        
        <mxCell id="efef7s39hfVOoQ_E5dqr-16" value="Local Machine" style="rounded=0;whiteSpace=wrap;html=1;fontSize=19;fontStyle=1;fillColor=#f5f5f5;strokeColor=#666666;fontColor=#333333;" vertex="1" parent="efef7s39hfVOoQ_E5dqr-1">
          
          <mxGeometry x="430" y="220" width="260" height="40" as="geometry" />
          
        </mxCell>
        
        <mxCell id="efef7s39hfVOoQ_E5dqr-18" value="" style="rounded=0;whiteSpace=wrap;html=1;fontSize=19;fontStyle=1;fillColor=#f5f5f5;strokeColor=#666666;fontColor=#333333;" vertex="1" parent="efef7s39hfVOoQ_E5dqr-1">
          
          <mxGeometry x="430" y="260" width="260" height="310" as="geometry" />
          
        </mxCell>
        
        <mxCell id="efef7s39hfVOoQ_E5dqr-21" style="edgeStyle=orthogonalEdgeStyle;rounded=0;orthogonalLoop=1;jettySize=auto;html=1;exitX=0.5;exitY=1;exitDx=0;exitDy=0;entryX=0.5;entryY=0;entryDx=0;entryDy=0;fontSize=19;" edge="1" parent="efef7s39hfVOoQ_E5dqr-1" source="efef7s39hfVOoQ_E5dqr-19" target="efef7s39hfVOoQ_E5dqr-20">
          
          <mxGeometry relative="1" as="geometry" />
          
        </mxCell>
        
        <mxCell id="efef7s39hfVOoQ_E5dqr-19" value="Make change to code for tickets service" style="rounded=0;whiteSpace=wrap;html=1;fontSize=18;fillColor=#dae8fc;strokeColor=#6c8ebf;" vertex="1" parent="efef7s39hfVOoQ_E5dqr-1">
          
          <mxGeometry x="440" y="275" width="240" height="80" as="geometry" />
          
        </mxCell>
        
        <mxCell id="efef7s39hfVOoQ_E5dqr-23" style="edgeStyle=orthogonalEdgeStyle;rounded=0;orthogonalLoop=1;jettySize=auto;html=1;exitX=0.5;exitY=1;exitDx=0;exitDy=0;entryX=0.5;entryY=0;entryDx=0;entryDy=0;fontSize=19;" edge="1" parent="efef7s39hfVOoQ_E5dqr-1" source="efef7s39hfVOoQ_E5dqr-20" target="efef7s39hfVOoQ_E5dqr-22">
          
          <mxGeometry relative="1" as="geometry" />
          
        </mxCell>
        
        <mxCell id="efef7s39hfVOoQ_E5dqr-20" value="Commit code to a git branch (any besides master!)" style="rounded=0;whiteSpace=wrap;html=1;fontSize=18;fillColor=#dae8fc;strokeColor=#6c8ebf;" vertex="1" parent="efef7s39hfVOoQ_E5dqr-1">
          
          <mxGeometry x="440" y="375" width="240" height="80" as="geometry" />
          
        </mxCell>
        
        <mxCell id="efef7s39hfVOoQ_E5dqr-22" value="Push branch to github" style="rounded=0;whiteSpace=wrap;html=1;fontSize=18;fillColor=#dae8fc;strokeColor=#6c8ebf;" vertex="1" parent="efef7s39hfVOoQ_E5dqr-1">
          
          <mxGeometry x="440" y="475" width="240" height="80" as="geometry" />
          
        </mxCell>
        
        <mxCell id="efef7s39hfVOoQ_E5dqr-25" value="Github" style="rounded=0;whiteSpace=wrap;html=1;fontSize=19;fontStyle=1;fillColor=#f5f5f5;strokeColor=#666666;fontColor=#333333;" vertex="1" parent="efef7s39hfVOoQ_E5dqr-1">
          
          <mxGeometry x="750" y="420" width="260" height="40" as="geometry" />
          
        </mxCell>
        
        <mxCell id="efef7s39hfVOoQ_E5dqr-33" style="edgeStyle=orthogonalEdgeStyle;rounded=0;orthogonalLoop=1;jettySize=auto;html=1;exitX=0.5;exitY=1;exitDx=0;exitDy=0;fontSize=18;" edge="1" parent="efef7s39hfVOoQ_E5dqr-1" source="efef7s39hfVOoQ_E5dqr-27" target="efef7s39hfVOoQ_E5dqr-29">
          
          <mxGeometry relative="1" as="geometry" />
          
        </mxCell>
        
        <mxCell id="efef7s39hfVOoQ_E5dqr-27" value="Github receives updated branch" style="rounded=0;whiteSpace=wrap;html=1;fontSize=18;fillColor=#dae8fc;strokeColor=#6c8ebf;" vertex="1" parent="efef7s39hfVOoQ_E5dqr-1">
          
          <mxGeometry x="760" y="475" width="240" height="80" as="geometry" />
          
        </mxCell>
        
        <mxCell id="efef7s39hfVOoQ_E5dqr-28" style="edgeStyle=orthogonalEdgeStyle;rounded=0;orthogonalLoop=1;jettySize=auto;html=1;exitX=1;exitY=0.5;exitDx=0;exitDy=0;fontSize=18;" edge="1" parent="efef7s39hfVOoQ_E5dqr-1" source="efef7s39hfVOoQ_E5dqr-22" target="efef7s39hfVOoQ_E5dqr-27">
          
          <mxGeometry relative="1" as="geometry" />
          
        </mxCell>
        
        <mxCell id="efef7s39hfVOoQ_E5dqr-34" style="edgeStyle=orthogonalEdgeStyle;rounded=0;orthogonalLoop=1;jettySize=auto;html=1;exitX=0.5;exitY=1;exitDx=0;exitDy=0;fontSize=18;" edge="1" parent="efef7s39hfVOoQ_E5dqr-1" source="efef7s39hfVOoQ_E5dqr-29" target="efef7s39hfVOoQ_E5dqr-31">
          
          <mxGeometry relative="1" as="geometry" />
          
        </mxCell>
        
        <mxCell id="efef7s39hfVOoQ_E5dqr-29" value="You manually create a pull request to merge branch into master" style="rounded=0;whiteSpace=wrap;html=1;fontSize=18;fillColor=#dae8fc;strokeColor=#6c8ebf;" vertex="1" parent="efef7s39hfVOoQ_E5dqr-1">
          
          <mxGeometry x="760" y="573" width="240" height="80" as="geometry" />
          
        </mxCell>
        
        <mxCell id="efef7s39hfVOoQ_E5dqr-36" style="edgeStyle=orthogonalEdgeStyle;rounded=0;orthogonalLoop=1;jettySize=auto;html=1;exitX=0.5;exitY=1;exitDx=0;exitDy=0;fontSize=18;" edge="1" parent="efef7s39hfVOoQ_E5dqr-1" source="efef7s39hfVOoQ_E5dqr-31" target="efef7s39hfVOoQ_E5dqr-35">
          
          <mxGeometry relative="1" as="geometry" />
          
        </mxCell>
        
        <mxCell id="efef7s39hfVOoQ_E5dqr-31" value="Github automatically runs tests for project" style="rounded=0;whiteSpace=wrap;html=1;fontSize=18;fillColor=#dae8fc;strokeColor=#6c8ebf;" vertex="1" parent="efef7s39hfVOoQ_E5dqr-1">
          
          <mxGeometry x="760" y="670" width="240" height="80" as="geometry" />
          
        </mxCell>
        
        <mxCell id="efef7s39hfVOoQ_E5dqr-38" style="edgeStyle=orthogonalEdgeStyle;rounded=0;orthogonalLoop=1;jettySize=auto;html=1;exitX=0.5;exitY=1;exitDx=0;exitDy=0;fontSize=18;" edge="1" parent="efef7s39hfVOoQ_E5dqr-1" source="efef7s39hfVOoQ_E5dqr-35" target="efef7s39hfVOoQ_E5dqr-37">
          
          <mxGeometry relative="1" as="geometry" />
          
        </mxCell>
        
        <mxCell id="efef7s39hfVOoQ_E5dqr-35" value="After tests pass, you merge the PR into master branch" style="rounded=0;whiteSpace=wrap;html=1;fontSize=18;fillColor=#dae8fc;strokeColor=#6c8ebf;" vertex="1" parent="efef7s39hfVOoQ_E5dqr-1">
          
          <mxGeometry x="760" y="770" width="240" height="80" as="geometry" />
          
        </mxCell>
        
        <mxCell id="efef7s39hfVOoQ_E5dqr-37" value="Because master branch has changed, github builds and deploys" style="rounded=0;whiteSpace=wrap;html=1;fontSize=18;fillColor=#dae8fc;strokeColor=#6c8ebf;" vertex="1" parent="efef7s39hfVOoQ_E5dqr-1">
          
          <mxGeometry x="760" y="870" width="240" height="80" as="geometry" />
          
        </mxCell>
        
      </root>
      
    </mxGraphModel>
    
  </diagram>
  <diagram id="WplA7KGuBLmxYdvJw9bG" name="04 - mono">
    
    <mxGraphModel dx="601" dy="296" grid="1" gridSize="10" guides="1" tooltips="1" connect="1" arrows="1" fold="1" page="1" pageScale="1" pageWidth="1920" pageHeight="1200" math="0" shadow="0">
      
      <root>
        
        <mxCell id="fDopvZmIRapMc9shfOSc-0" />
        
        <mxCell id="fDopvZmIRapMc9shfOSc-1" parent="fDopvZmIRapMc9shfOSc-0" />
        
        <mxCell id="fDopvZmIRapMc9shfOSc-8" value="" style="rounded=0;whiteSpace=wrap;html=1;fontSize=20;fillColor=#dae8fc;strokeColor=#6c8ebf;" vertex="1" parent="fDopvZmIRapMc9shfOSc-1">
          
          <mxGeometry x="660" y="290" width="270" height="160" as="geometry" />
          
        </mxCell>
        
        <mxCell id="fDopvZmIRapMc9shfOSc-2" value="auth" style="rounded=0;whiteSpace=wrap;html=1;fontSize=20;fontStyle=0;fillColor=#f5f5f5;strokeColor=#666666;fontColor=#333333;" vertex="1" parent="fDopvZmIRapMc9shfOSc-1">
          
          <mxGeometry x="675" y="300" width="110" height="40" as="geometry" />
          
        </mxCell>
        
        <mxCell id="fDopvZmIRapMc9shfOSc-3" value="client" style="rounded=0;whiteSpace=wrap;html=1;fontSize=20;fontStyle=0;fillColor=#f5f5f5;strokeColor=#666666;fontColor=#333333;" vertex="1" parent="fDopvZmIRapMc9shfOSc-1">
          
          <mxGeometry x="675" y="350" width="110" height="40" as="geometry" />
          
        </mxCell>
        
        <mxCell id="fDopvZmIRapMc9shfOSc-4" value="expiration" style="rounded=0;whiteSpace=wrap;html=1;fontSize=20;fontStyle=0;fillColor=#f5f5f5;strokeColor=#666666;fontColor=#333333;" vertex="1" parent="fDopvZmIRapMc9shfOSc-1">
          
          <mxGeometry x="675" y="400" width="110" height="40" as="geometry" />
          
        </mxCell>
        
        <mxCell id="fDopvZmIRapMc9shfOSc-5" value="orders" style="rounded=0;whiteSpace=wrap;html=1;fontSize=20;fontStyle=0;fillColor=#f5f5f5;strokeColor=#666666;fontColor=#333333;" vertex="1" parent="fDopvZmIRapMc9shfOSc-1">
          
          <mxGeometry x="805" y="400" width="110" height="40" as="geometry" />
          
        </mxCell>
        
        <mxCell id="fDopvZmIRapMc9shfOSc-6" value="payments" style="rounded=0;whiteSpace=wrap;html=1;fontSize=20;fontStyle=0;fillColor=#f5f5f5;strokeColor=#666666;fontColor=#333333;" vertex="1" parent="fDopvZmIRapMc9shfOSc-1">
          
          <mxGeometry x="805" y="350" width="110" height="40" as="geometry" />
          
        </mxCell>
        
        <mxCell id="fDopvZmIRapMc9shfOSc-7" value="tickets" style="rounded=0;whiteSpace=wrap;html=1;fontSize=20;fontStyle=0;fillColor=#f5f5f5;strokeColor=#666666;fontColor=#333333;" vertex="1" parent="fDopvZmIRapMc9shfOSc-1">
          
          <mxGeometry x="805" y="300" width="110" height="40" as="geometry" />
          
        </mxCell>
        
        <mxCell id="fDopvZmIRapMc9shfOSc-9" value="&lt;b&gt;Single Git Repository&lt;/b&gt;" style="rounded=0;whiteSpace=wrap;html=1;fontSize=20;fillColor=#dae8fc;strokeColor=#6c8ebf;" vertex="1" parent="fDopvZmIRapMc9shfOSc-1">
          
          <mxGeometry x="660" y="240" width="270" height="50" as="geometry" />
          
        </mxCell>
        
        <mxCell id="fDopvZmIRapMc9shfOSc-11" value="&lt;i&gt;Mono Repo Approach&lt;/i&gt;" style="text;html=1;strokeColor=none;fillColor=none;align=center;verticalAlign=middle;whiteSpace=wrap;rounded=0;fontSize=20;" vertex="1" parent="fDopvZmIRapMc9shfOSc-1">
          
          <mxGeometry x="687.5" y="210" width="215" height="20" as="geometry" />
          
        </mxCell>
        
      </root>
      
    </mxGraphModel>
    
  </diagram>
  <diagram name="05 - multi" id="Im7xLdWKOwYbYxXcL7KU">
    
    <mxGraphModel dx="589" dy="290" grid="1" gridSize="10" guides="1" tooltips="1" connect="1" arrows="1" fold="1" page="1" pageScale="1" pageWidth="1920" pageHeight="1200" math="0" shadow="0">
      
      <root>
        
        <mxCell id="xyrkN9s91xBhvWWTPoDW-0" />
        
        <mxCell id="xyrkN9s91xBhvWWTPoDW-1" parent="xyrkN9s91xBhvWWTPoDW-0" />
        
        <mxCell id="xyrkN9s91xBhvWWTPoDW-2" value="" style="rounded=0;whiteSpace=wrap;html=1;fontSize=20;fillColor=#dae8fc;strokeColor=#6c8ebf;" vertex="1" parent="xyrkN9s91xBhvWWTPoDW-1">
          
          <mxGeometry x="570" y="270" width="150" height="60" as="geometry" />
          
        </mxCell>
        
        <mxCell id="xyrkN9s91xBhvWWTPoDW-3" value="auth" style="rounded=0;whiteSpace=wrap;html=1;fontSize=20;fontStyle=0;fillColor=#f5f5f5;strokeColor=#666666;fontColor=#333333;" vertex="1" parent="xyrkN9s91xBhvWWTPoDW-1">
          
          <mxGeometry x="590" y="280" width="110" height="40" as="geometry" />
          
        </mxCell>
        
        <mxCell id="xyrkN9s91xBhvWWTPoDW-9" value="&lt;b&gt;Git Repository&lt;/b&gt;" style="rounded=0;whiteSpace=wrap;html=1;fontSize=20;fillColor=#dae8fc;strokeColor=#6c8ebf;" vertex="1" parent="xyrkN9s91xBhvWWTPoDW-1">
          
          <mxGeometry x="570" y="240" width="150" height="30" as="geometry" />
          
        </mxCell>
        
        <mxCell id="xyrkN9s91xBhvWWTPoDW-10" value="&lt;i&gt;Repo-Per-Service Approach&lt;/i&gt;" style="text;html=1;strokeColor=none;fillColor=none;align=center;verticalAlign=middle;whiteSpace=wrap;rounded=0;fontSize=20;" vertex="1" parent="xyrkN9s91xBhvWWTPoDW-1">
          
          <mxGeometry x="663.75" y="200" width="302.5" height="20" as="geometry" />
          
        </mxCell>
        
        <mxCell id="xyrkN9s91xBhvWWTPoDW-11" value="" style="rounded=0;whiteSpace=wrap;html=1;fontSize=20;fillColor=#dae8fc;strokeColor=#6c8ebf;" vertex="1" parent="xyrkN9s91xBhvWWTPoDW-1">
          
          <mxGeometry x="740" y="270" width="150" height="60" as="geometry" />
          
        </mxCell>
        
        <mxCell id="xyrkN9s91xBhvWWTPoDW-12" value="&lt;b&gt;Git Repository&lt;/b&gt;" style="rounded=0;whiteSpace=wrap;html=1;fontSize=20;fillColor=#dae8fc;strokeColor=#6c8ebf;" vertex="1" parent="xyrkN9s91xBhvWWTPoDW-1">
          
          <mxGeometry x="740" y="240" width="150" height="30" as="geometry" />
          
        </mxCell>
        
        <mxCell id="xyrkN9s91xBhvWWTPoDW-13" value="" style="rounded=0;whiteSpace=wrap;html=1;fontSize=20;fillColor=#dae8fc;strokeColor=#6c8ebf;" vertex="1" parent="xyrkN9s91xBhvWWTPoDW-1">
          
          <mxGeometry x="910" y="270" width="150" height="60" as="geometry" />
          
        </mxCell>
        
        <mxCell id="xyrkN9s91xBhvWWTPoDW-14" value="&lt;b&gt;Git Repository&lt;/b&gt;" style="rounded=0;whiteSpace=wrap;html=1;fontSize=20;fillColor=#dae8fc;strokeColor=#6c8ebf;" vertex="1" parent="xyrkN9s91xBhvWWTPoDW-1">
          
          <mxGeometry x="910" y="240" width="150" height="30" as="geometry" />
          
        </mxCell>
        
        <mxCell id="xyrkN9s91xBhvWWTPoDW-15" value="" style="rounded=0;whiteSpace=wrap;html=1;fontSize=20;fillColor=#dae8fc;strokeColor=#6c8ebf;" vertex="1" parent="xyrkN9s91xBhvWWTPoDW-1">
          
          <mxGeometry x="570" y="380" width="150" height="60" as="geometry" />
          
        </mxCell>
        
        <mxCell id="xyrkN9s91xBhvWWTPoDW-16" value="&lt;b&gt;Git Repository&lt;/b&gt;" style="rounded=0;whiteSpace=wrap;html=1;fontSize=20;fillColor=#dae8fc;strokeColor=#6c8ebf;" vertex="1" parent="xyrkN9s91xBhvWWTPoDW-1">
          
          <mxGeometry x="570" y="350" width="150" height="30" as="geometry" />
          
        </mxCell>
        
        <mxCell id="xyrkN9s91xBhvWWTPoDW-17" value="" style="rounded=0;whiteSpace=wrap;html=1;fontSize=20;fillColor=#dae8fc;strokeColor=#6c8ebf;" vertex="1" parent="xyrkN9s91xBhvWWTPoDW-1">
          
          <mxGeometry x="740" y="380" width="150" height="60" as="geometry" />
          
        </mxCell>
        
        <mxCell id="xyrkN9s91xBhvWWTPoDW-18" value="&lt;b&gt;Git Repository&lt;/b&gt;" style="rounded=0;whiteSpace=wrap;html=1;fontSize=20;fillColor=#dae8fc;strokeColor=#6c8ebf;" vertex="1" parent="xyrkN9s91xBhvWWTPoDW-1">
          
          <mxGeometry x="740" y="350" width="150" height="30" as="geometry" />
          
        </mxCell>
        
        <mxCell id="xyrkN9s91xBhvWWTPoDW-19" value="" style="rounded=0;whiteSpace=wrap;html=1;fontSize=20;fillColor=#dae8fc;strokeColor=#6c8ebf;" vertex="1" parent="xyrkN9s91xBhvWWTPoDW-1">
          
          <mxGeometry x="910" y="380" width="150" height="60" as="geometry" />
          
        </mxCell>
        
        <mxCell id="xyrkN9s91xBhvWWTPoDW-20" value="&lt;b&gt;Git Repository&lt;/b&gt;" style="rounded=0;whiteSpace=wrap;html=1;fontSize=20;fillColor=#dae8fc;strokeColor=#6c8ebf;" vertex="1" parent="xyrkN9s91xBhvWWTPoDW-1">
          
          <mxGeometry x="910" y="350" width="150" height="30" as="geometry" />
          
        </mxCell>
        
        <mxCell id="xyrkN9s91xBhvWWTPoDW-4" value="client" style="rounded=0;whiteSpace=wrap;html=1;fontSize=20;fontStyle=0;fillColor=#f5f5f5;strokeColor=#666666;fontColor=#333333;" vertex="1" parent="xyrkN9s91xBhvWWTPoDW-1">
          
          <mxGeometry x="590" y="390" width="110" height="40" as="geometry" />
          
        </mxCell>
        
        <mxCell id="xyrkN9s91xBhvWWTPoDW-5" value="expiration" style="rounded=0;whiteSpace=wrap;html=1;fontSize=20;fontStyle=0;fillColor=#f5f5f5;strokeColor=#666666;fontColor=#333333;" vertex="1" parent="xyrkN9s91xBhvWWTPoDW-1">
          
          <mxGeometry x="760" y="390" width="110" height="40" as="geometry" />
          
        </mxCell>
        
        <mxCell id="xyrkN9s91xBhvWWTPoDW-6" value="orders" style="rounded=0;whiteSpace=wrap;html=1;fontSize=20;fontStyle=0;fillColor=#f5f5f5;strokeColor=#666666;fontColor=#333333;" vertex="1" parent="xyrkN9s91xBhvWWTPoDW-1">
          
          <mxGeometry x="930" y="390" width="110" height="40" as="geometry" />
          
        </mxCell>
        
        <mxCell id="xyrkN9s91xBhvWWTPoDW-7" value="payments" style="rounded=0;whiteSpace=wrap;html=1;fontSize=20;fontStyle=0;fillColor=#f5f5f5;strokeColor=#666666;fontColor=#333333;" vertex="1" parent="xyrkN9s91xBhvWWTPoDW-1">
          
          <mxGeometry x="930" y="280" width="110" height="40" as="geometry" />
          
        </mxCell>
        
        <mxCell id="xyrkN9s91xBhvWWTPoDW-8" value="tickets" style="rounded=0;whiteSpace=wrap;html=1;fontSize=20;fontStyle=0;fillColor=#f5f5f5;strokeColor=#666666;fontColor=#333333;" vertex="1" parent="xyrkN9s91xBhvWWTPoDW-1">
          
          <mxGeometry x="760" y="280" width="110" height="40" as="geometry" />
          
        </mxCell>
        
      </root>
      
    </mxGraphModel>
    
  </diagram>
  <diagram id="YDeAepenmeYaaepz5cW_" name="07 - gh">
    
    <mxGraphModel dx="834" dy="411" grid="1" gridSize="10" guides="1" tooltips="1" connect="1" arrows="1" fold="1" page="1" pageScale="1" pageWidth="1920" pageHeight="1200" math="0" shadow="0">
      
      <root>
        
        <mxCell id="x2qxDwsqEceVmsBlULub-0" />
        
        <mxCell id="x2qxDwsqEceVmsBlULub-1" parent="x2qxDwsqEceVmsBlULub-0" />
        
        <mxCell id="x2qxDwsqEceVmsBlULub-9" style="edgeStyle=orthogonalEdgeStyle;rounded=0;orthogonalLoop=1;jettySize=auto;html=1;exitX=1;exitY=0.5;exitDx=0;exitDy=0;entryX=0;entryY=0.5;entryDx=0;entryDy=0;fontSize=18;" edge="1" parent="x2qxDwsqEceVmsBlULub-1" source="x2qxDwsqEceVmsBlULub-2" target="x2qxDwsqEceVmsBlULub-6">
          
          <mxGeometry relative="1" as="geometry" />
          
        </mxCell>
        
        <mxCell id="x2qxDwsqEceVmsBlULub-2" value="Code Pushed" style="rounded=0;whiteSpace=wrap;html=1;fontSize=18;fillColor=#dae8fc;strokeColor=#6c8ebf;" vertex="1" parent="x2qxDwsqEceVmsBlULub-1">
          
          <mxGeometry x="590" y="240" width="210" height="60" as="geometry" />
          
        </mxCell>
        
        <mxCell id="x2qxDwsqEceVmsBlULub-10" style="edgeStyle=orthogonalEdgeStyle;rounded=0;orthogonalLoop=1;jettySize=auto;html=1;exitX=1;exitY=0.5;exitDx=0;exitDy=0;fontSize=18;" edge="1" parent="x2qxDwsqEceVmsBlULub-1" source="x2qxDwsqEceVmsBlULub-3" target="x2qxDwsqEceVmsBlULub-6">
          
          <mxGeometry relative="1" as="geometry" />
          
        </mxCell>
        
        <mxCell id="x2qxDwsqEceVmsBlULub-3" value="Pull Request Created" style="rounded=0;whiteSpace=wrap;html=1;fontSize=18;fillColor=#dae8fc;strokeColor=#6c8ebf;" vertex="1" parent="x2qxDwsqEceVmsBlULub-1">
          
          <mxGeometry x="590" y="310" width="210" height="60" as="geometry" />
          
        </mxCell>
        
        <mxCell id="x2qxDwsqEceVmsBlULub-11" style="edgeStyle=orthogonalEdgeStyle;rounded=0;orthogonalLoop=1;jettySize=auto;html=1;exitX=1;exitY=0.5;exitDx=0;exitDy=0;fontSize=18;" edge="1" parent="x2qxDwsqEceVmsBlULub-1" source="x2qxDwsqEceVmsBlULub-4" target="x2qxDwsqEceVmsBlULub-6">
          
          <mxGeometry relative="1" as="geometry" />
          
        </mxCell>
        
        <mxCell id="x2qxDwsqEceVmsBlULub-4" value="Pull Request Closed" style="rounded=0;whiteSpace=wrap;html=1;fontSize=18;fillColor=#dae8fc;strokeColor=#6c8ebf;" vertex="1" parent="x2qxDwsqEceVmsBlULub-1">
          
          <mxGeometry x="590" y="380" width="210" height="60" as="geometry" />
          
        </mxCell>
        
        <mxCell id="x2qxDwsqEceVmsBlULub-13" style="edgeStyle=orthogonalEdgeStyle;rounded=0;orthogonalLoop=1;jettySize=auto;html=1;exitX=1;exitY=0.5;exitDx=0;exitDy=0;entryX=0;entryY=0.5;entryDx=0;entryDy=0;fontSize=18;" edge="1" parent="x2qxDwsqEceVmsBlULub-1" source="x2qxDwsqEceVmsBlULub-5" target="x2qxDwsqEceVmsBlULub-6">
          
          <mxGeometry relative="1" as="geometry" />
          
        </mxCell>
        
        <mxCell id="x2qxDwsqEceVmsBlULub-5" value="Repository is Forked" style="rounded=0;whiteSpace=wrap;html=1;fontSize=18;fillColor=#dae8fc;strokeColor=#6c8ebf;" vertex="1" parent="x2qxDwsqEceVmsBlULub-1">
          
          <mxGeometry x="590" y="450" width="210" height="60" as="geometry" />
          
        </mxCell>
        
        <mxCell id="x2qxDwsqEceVmsBlULub-8" style="edgeStyle=orthogonalEdgeStyle;rounded=0;orthogonalLoop=1;jettySize=auto;html=1;exitX=1;exitY=0.5;exitDx=0;exitDy=0;fontSize=18;" edge="1" parent="x2qxDwsqEceVmsBlULub-1" source="x2qxDwsqEceVmsBlULub-6" target="x2qxDwsqEceVmsBlULub-7">
          
          <mxGeometry relative="1" as="geometry" />
          
        </mxCell>
        
        <mxCell id="x2qxDwsqEceVmsBlULub-6" value="Event" style="rounded=0;whiteSpace=wrap;html=1;fontSize=18;" vertex="1" parent="x2qxDwsqEceVmsBlULub-1">
          
          <mxGeometry x="870" y="350" width="130" height="60" as="geometry" />
          
        </mxCell>
        
        <mxCell id="x2qxDwsqEceVmsBlULub-7" value="Run a Github Action" style="rounded=0;whiteSpace=wrap;html=1;fontSize=18;fillColor=#d5e8d4;strokeColor=#82b366;" vertex="1" parent="x2qxDwsqEceVmsBlULub-1">
          
          <mxGeometry x="1040" y="350" width="210" height="60" as="geometry" />
          
        </mxCell>
        
      </root>
      
    </mxGraphModel>
    
  </diagram>
  <diagram id="ZLU9xuskzjlwLtaaVXR0" name="08 - de">
    
    <mxGraphModel dx="501" dy="246" grid="1" gridSize="10" guides="1" tooltips="1" connect="1" arrows="1" fold="1" page="1" pageScale="1" pageWidth="1920" pageHeight="1200" math="0" shadow="0">
      
      <root>
        
        <mxCell id="fzHOzXPpxrr-nJJwTKcC-0" />
        
        <mxCell id="fzHOzXPpxrr-nJJwTKcC-1" parent="fzHOzXPpxrr-nJJwTKcC-0" />
        
        <mxCell id="fY1W9Jgl4veljGyitBmV-0" value="auth" style="rounded=0;whiteSpace=wrap;html=1;fontSize=20;fontStyle=0;fillColor=#f5f5f5;strokeColor=#666666;fontColor=#333333;" vertex="1" parent="fzHOzXPpxrr-nJJwTKcC-1">
          
          <mxGeometry x="675" y="340" width="110" height="40" as="geometry" />
          
        </mxCell>
        
        <mxCell id="fY1W9Jgl4veljGyitBmV-2" value="payments" style="rounded=0;whiteSpace=wrap;html=1;fontSize=20;fontStyle=0;fillColor=#f5f5f5;strokeColor=#666666;fontColor=#333333;" vertex="1" parent="fzHOzXPpxrr-nJJwTKcC-1">
          
          <mxGeometry x="870" y="340" width="110" height="40" as="geometry" />
          
        </mxCell>
        
        <mxCell id="fY1W9Jgl4veljGyitBmV-5" style="edgeStyle=orthogonalEdgeStyle;rounded=0;orthogonalLoop=1;jettySize=auto;html=1;exitX=0.5;exitY=1;exitDx=0;exitDy=0;entryX=0.5;entryY=0;entryDx=0;entryDy=0;fontSize=18;" edge="1" parent="fzHOzXPpxrr-nJJwTKcC-1" source="fY1W9Jgl4veljGyitBmV-3" target="fY1W9Jgl4veljGyitBmV-0">
          
          <mxGeometry relative="1" as="geometry" />
          
        </mxCell>
        
        <mxCell id="fY1W9Jgl4veljGyitBmV-3" value="Changes made to this service..." style="rounded=0;whiteSpace=wrap;html=1;fontSize=18;" vertex="1" parent="fzHOzXPpxrr-nJJwTKcC-1">
          
          <mxGeometry x="645" y="240" width="170" height="60" as="geometry" />
          
        </mxCell>
        
        <mxCell id="fY1W9Jgl4veljGyitBmV-6" value="Changes made to this service..." style="rounded=0;whiteSpace=wrap;html=1;fontSize=18;" vertex="1" parent="fzHOzXPpxrr-nJJwTKcC-1">
          
          <mxGeometry x="645" y="240" width="170" height="60" as="geometry" />
          
        </mxCell>
        
        <mxCell id="fY1W9Jgl4veljGyitBmV-8" style="edgeStyle=orthogonalEdgeStyle;rounded=0;orthogonalLoop=1;jettySize=auto;html=1;exitX=0.5;exitY=1;exitDx=0;exitDy=0;fontSize=18;" edge="1" parent="fzHOzXPpxrr-nJJwTKcC-1" source="fY1W9Jgl4veljGyitBmV-7" target="fY1W9Jgl4veljGyitBmV-2">
          
          <mxGeometry relative="1" as="geometry" />
          
        </mxCell>
        
        <mxCell id="fY1W9Jgl4veljGyitBmV-7" value="...shouldn&#39;t break anything in this service" style="rounded=0;whiteSpace=wrap;html=1;fontSize=18;" vertex="1" parent="fzHOzXPpxrr-nJJwTKcC-1">
          
          <mxGeometry x="830" y="240" width="190" height="60" as="geometry" />
          
        </mxCell>
        
      </root>
      
    </mxGraphModel>
    
  </diagram>
  <diagram id="6e01vUaORQyyT__-Yjjd" name="09 - depl">
    
    <mxGraphModel dx="1036" dy="510" grid="1" gridSize="10" guides="1" tooltips="1" connect="1" arrows="1" fold="1" page="1" pageScale="1" pageWidth="1920" pageHeight="1200" math="0" shadow="0">
      
      <root>
        
        <mxCell id="-d4rMKqaaEMEFj21faLV-0" />
        
        <mxCell id="-d4rMKqaaEMEFj21faLV-1" parent="-d4rMKqaaEMEFj21faLV-0" />
        
        <mxCell id="-d4rMKqaaEMEFj21faLV-4" style="edgeStyle=orthogonalEdgeStyle;rounded=0;orthogonalLoop=1;jettySize=auto;html=1;exitX=1;exitY=0.5;exitDx=0;exitDy=0;fontSize=18;" edge="1" parent="-d4rMKqaaEMEFj21faLV-1" source="-d4rMKqaaEMEFj21faLV-2" target="-d4rMKqaaEMEFj21faLV-3">
          
          <mxGeometry relative="1" as="geometry" />
          
        </mxCell>
        
        <mxCell id="-d4rMKqaaEMEFj21faLV-2" value="auth" style="rounded=0;whiteSpace=wrap;html=1;fontSize=18;fillColor=#f5f5f5;strokeColor=#666666;fontColor=#333333;fontStyle=1" vertex="1" parent="-d4rMKqaaEMEFj21faLV-1">
          
          <mxGeometry x="520" y="270" width="140" height="40" as="geometry" />
          
        </mxCell>
        
        <mxCell id="-d4rMKqaaEMEFj21faLV-6" style="edgeStyle=orthogonalEdgeStyle;rounded=0;orthogonalLoop=1;jettySize=auto;html=1;exitX=1;exitY=0.5;exitDx=0;exitDy=0;fontSize=18;" edge="1" parent="-d4rMKqaaEMEFj21faLV-1" source="-d4rMKqaaEMEFj21faLV-3" target="-d4rMKqaaEMEFj21faLV-5">
          
          <mxGeometry relative="1" as="geometry" />
          
        </mxCell>
        
        <mxCell id="-d4rMKqaaEMEFj21faLV-3" value="Build new image" style="rounded=0;whiteSpace=wrap;html=1;fontSize=18;fillColor=#f5f5f5;strokeColor=#666666;fontColor=#333333;fontStyle=1" vertex="1" parent="-d4rMKqaaEMEFj21faLV-1">
          
          <mxGeometry x="700" y="270" width="190" height="40" as="geometry" />
          
        </mxCell>
        
        <mxCell id="-d4rMKqaaEMEFj21faLV-8" style="edgeStyle=orthogonalEdgeStyle;rounded=0;orthogonalLoop=1;jettySize=auto;html=1;exitX=1;exitY=0.5;exitDx=0;exitDy=0;fontSize=18;" edge="1" parent="-d4rMKqaaEMEFj21faLV-1" source="-d4rMKqaaEMEFj21faLV-5" target="-d4rMKqaaEMEFj21faLV-7">
          
          <mxGeometry relative="1" as="geometry" />
          
        </mxCell>
        
        <mxCell id="-d4rMKqaaEMEFj21faLV-5" value="Push to docker hub" style="rounded=0;whiteSpace=wrap;html=1;fontSize=18;fillColor=#f5f5f5;strokeColor=#666666;fontColor=#333333;fontStyle=1" vertex="1" parent="-d4rMKqaaEMEFj21faLV-1">
          
          <mxGeometry x="930" y="270" width="190" height="40" as="geometry" />
          
        </mxCell>
        
        <mxCell id="-d4rMKqaaEMEFj21faLV-7" value="Update deployment" style="rounded=0;whiteSpace=wrap;html=1;fontSize=18;fillColor=#f5f5f5;strokeColor=#666666;fontColor=#333333;fontStyle=1" vertex="1" parent="-d4rMKqaaEMEFj21faLV-1">
          
          <mxGeometry x="1150" y="270" width="190" height="40" as="geometry" />
          
        </mxCell>
        
        <mxCell id="-d4rMKqaaEMEFj21faLV-9" style="edgeStyle=orthogonalEdgeStyle;rounded=0;orthogonalLoop=1;jettySize=auto;html=1;exitX=1;exitY=0.5;exitDx=0;exitDy=0;fontSize=18;" edge="1" parent="-d4rMKqaaEMEFj21faLV-1" source="-d4rMKqaaEMEFj21faLV-10" target="-d4rMKqaaEMEFj21faLV-12">
          
          <mxGeometry relative="1" as="geometry" />
          
        </mxCell>
        
        <mxCell id="-d4rMKqaaEMEFj21faLV-10" value="client" style="rounded=0;whiteSpace=wrap;html=1;fontSize=18;fillColor=#f5f5f5;strokeColor=#666666;fontColor=#333333;fontStyle=1" vertex="1" parent="-d4rMKqaaEMEFj21faLV-1">
          
          <mxGeometry x="520" y="330" width="140" height="40" as="geometry" />
          
        </mxCell>
        
        <mxCell id="-d4rMKqaaEMEFj21faLV-11" style="edgeStyle=orthogonalEdgeStyle;rounded=0;orthogonalLoop=1;jettySize=auto;html=1;exitX=1;exitY=0.5;exitDx=0;exitDy=0;fontSize=18;" edge="1" parent="-d4rMKqaaEMEFj21faLV-1" source="-d4rMKqaaEMEFj21faLV-12" target="-d4rMKqaaEMEFj21faLV-14">
          
          <mxGeometry relative="1" as="geometry" />
          
        </mxCell>
        
        <mxCell id="-d4rMKqaaEMEFj21faLV-12" value="Build new image" style="rounded=0;whiteSpace=wrap;html=1;fontSize=18;fillColor=#f5f5f5;strokeColor=#666666;fontColor=#333333;fontStyle=1" vertex="1" parent="-d4rMKqaaEMEFj21faLV-1">
          
          <mxGeometry x="700" y="330" width="190" height="40" as="geometry" />
          
        </mxCell>
        
        <mxCell id="-d4rMKqaaEMEFj21faLV-13" style="edgeStyle=orthogonalEdgeStyle;rounded=0;orthogonalLoop=1;jettySize=auto;html=1;exitX=1;exitY=0.5;exitDx=0;exitDy=0;fontSize=18;" edge="1" parent="-d4rMKqaaEMEFj21faLV-1" source="-d4rMKqaaEMEFj21faLV-14" target="-d4rMKqaaEMEFj21faLV-15">
          
          <mxGeometry relative="1" as="geometry" />
          
        </mxCell>
        
        <mxCell id="-d4rMKqaaEMEFj21faLV-14" value="Push to docker hub" style="rounded=0;whiteSpace=wrap;html=1;fontSize=18;fillColor=#f5f5f5;strokeColor=#666666;fontColor=#333333;fontStyle=1" vertex="1" parent="-d4rMKqaaEMEFj21faLV-1">
          
          <mxGeometry x="930" y="330" width="190" height="40" as="geometry" />
          
        </mxCell>
        
        <mxCell id="-d4rMKqaaEMEFj21faLV-15" value="Update deployment" style="rounded=0;whiteSpace=wrap;html=1;fontSize=18;fillColor=#f5f5f5;strokeColor=#666666;fontColor=#333333;fontStyle=1" vertex="1" parent="-d4rMKqaaEMEFj21faLV-1">
          
          <mxGeometry x="1150" y="330" width="190" height="40" as="geometry" />
          
        </mxCell>
        
        <mxCell id="-d4rMKqaaEMEFj21faLV-16" style="edgeStyle=orthogonalEdgeStyle;rounded=0;orthogonalLoop=1;jettySize=auto;html=1;exitX=1;exitY=0.5;exitDx=0;exitDy=0;fontSize=18;" edge="1" parent="-d4rMKqaaEMEFj21faLV-1" source="-d4rMKqaaEMEFj21faLV-17" target="-d4rMKqaaEMEFj21faLV-19">
          
          <mxGeometry relative="1" as="geometry" />
          
        </mxCell>
        
        <mxCell id="-d4rMKqaaEMEFj21faLV-17" value="expiration" style="rounded=0;whiteSpace=wrap;html=1;fontSize=18;fillColor=#f5f5f5;strokeColor=#666666;fontColor=#333333;fontStyle=1" vertex="1" parent="-d4rMKqaaEMEFj21faLV-1">
          
          <mxGeometry x="520" y="390" width="140" height="40" as="geometry" />
          
        </mxCell>
        
        <mxCell id="-d4rMKqaaEMEFj21faLV-18" style="edgeStyle=orthogonalEdgeStyle;rounded=0;orthogonalLoop=1;jettySize=auto;html=1;exitX=1;exitY=0.5;exitDx=0;exitDy=0;fontSize=18;" edge="1" parent="-d4rMKqaaEMEFj21faLV-1" source="-d4rMKqaaEMEFj21faLV-19" target="-d4rMKqaaEMEFj21faLV-21">
          
          <mxGeometry relative="1" as="geometry" />
          
        </mxCell>
        
        <mxCell id="-d4rMKqaaEMEFj21faLV-19" value="Build new image" style="rounded=0;whiteSpace=wrap;html=1;fontSize=18;fillColor=#f5f5f5;strokeColor=#666666;fontColor=#333333;fontStyle=1" vertex="1" parent="-d4rMKqaaEMEFj21faLV-1">
          
          <mxGeometry x="700" y="390" width="190" height="40" as="geometry" />
          
        </mxCell>
        
        <mxCell id="-d4rMKqaaEMEFj21faLV-20" style="edgeStyle=orthogonalEdgeStyle;rounded=0;orthogonalLoop=1;jettySize=auto;html=1;exitX=1;exitY=0.5;exitDx=0;exitDy=0;fontSize=18;" edge="1" parent="-d4rMKqaaEMEFj21faLV-1" source="-d4rMKqaaEMEFj21faLV-21" target="-d4rMKqaaEMEFj21faLV-22">
          
          <mxGeometry relative="1" as="geometry" />
          
        </mxCell>
        
        <mxCell id="-d4rMKqaaEMEFj21faLV-21" value="Push to docker hub" style="rounded=0;whiteSpace=wrap;html=1;fontSize=18;fillColor=#f5f5f5;strokeColor=#666666;fontColor=#333333;fontStyle=1" vertex="1" parent="-d4rMKqaaEMEFj21faLV-1">
          
          <mxGeometry x="930" y="390" width="190" height="40" as="geometry" />
          
        </mxCell>
        
        <mxCell id="-d4rMKqaaEMEFj21faLV-22" value="Update deployment" style="rounded=0;whiteSpace=wrap;html=1;fontSize=18;fillColor=#f5f5f5;strokeColor=#666666;fontColor=#333333;fontStyle=1" vertex="1" parent="-d4rMKqaaEMEFj21faLV-1">
          
          <mxGeometry x="1150" y="390" width="190" height="40" as="geometry" />
          
        </mxCell>
        
        <mxCell id="-d4rMKqaaEMEFj21faLV-23" style="edgeStyle=orthogonalEdgeStyle;rounded=0;orthogonalLoop=1;jettySize=auto;html=1;exitX=1;exitY=0.5;exitDx=0;exitDy=0;fontSize=18;" edge="1" parent="-d4rMKqaaEMEFj21faLV-1" source="-d4rMKqaaEMEFj21faLV-24" target="-d4rMKqaaEMEFj21faLV-26">
          
          <mxGeometry relative="1" as="geometry" />
          
        </mxCell>
        
        <mxCell id="-d4rMKqaaEMEFj21faLV-24" value="tickets" style="rounded=0;whiteSpace=wrap;html=1;fontSize=18;fillColor=#f5f5f5;strokeColor=#666666;fontColor=#333333;fontStyle=1" vertex="1" parent="-d4rMKqaaEMEFj21faLV-1">
          
          <mxGeometry x="520" y="450" width="140" height="40" as="geometry" />
          
        </mxCell>
        
        <mxCell id="-d4rMKqaaEMEFj21faLV-25" style="edgeStyle=orthogonalEdgeStyle;rounded=0;orthogonalLoop=1;jettySize=auto;html=1;exitX=1;exitY=0.5;exitDx=0;exitDy=0;fontSize=18;" edge="1" parent="-d4rMKqaaEMEFj21faLV-1" source="-d4rMKqaaEMEFj21faLV-26" target="-d4rMKqaaEMEFj21faLV-28">
          
          <mxGeometry relative="1" as="geometry" />
          
        </mxCell>
        
        <mxCell id="-d4rMKqaaEMEFj21faLV-26" value="Build new image" style="rounded=0;whiteSpace=wrap;html=1;fontSize=18;fillColor=#f5f5f5;strokeColor=#666666;fontColor=#333333;fontStyle=1" vertex="1" parent="-d4rMKqaaEMEFj21faLV-1">
          
          <mxGeometry x="700" y="450" width="190" height="40" as="geometry" />
          
        </mxCell>
        
        <mxCell id="-d4rMKqaaEMEFj21faLV-27" style="edgeStyle=orthogonalEdgeStyle;rounded=0;orthogonalLoop=1;jettySize=auto;html=1;exitX=1;exitY=0.5;exitDx=0;exitDy=0;fontSize=18;" edge="1" parent="-d4rMKqaaEMEFj21faLV-1" source="-d4rMKqaaEMEFj21faLV-28" target="-d4rMKqaaEMEFj21faLV-29">
          
          <mxGeometry relative="1" as="geometry" />
          
        </mxCell>
        
        <mxCell id="-d4rMKqaaEMEFj21faLV-28" value="Push to docker hub" style="rounded=0;whiteSpace=wrap;html=1;fontSize=18;fillColor=#f5f5f5;strokeColor=#666666;fontColor=#333333;fontStyle=1" vertex="1" parent="-d4rMKqaaEMEFj21faLV-1">
          
          <mxGeometry x="930" y="450" width="190" height="40" as="geometry" />
          
        </mxCell>
        
        <mxCell id="-d4rMKqaaEMEFj21faLV-29" value="Update deployment" style="rounded=0;whiteSpace=wrap;html=1;fontSize=18;fillColor=#f5f5f5;strokeColor=#666666;fontColor=#333333;fontStyle=1" vertex="1" parent="-d4rMKqaaEMEFj21faLV-1">
          
          <mxGeometry x="1150" y="450" width="190" height="40" as="geometry" />
          
        </mxCell>
        
        <mxCell id="-d4rMKqaaEMEFj21faLV-30" style="edgeStyle=orthogonalEdgeStyle;rounded=0;orthogonalLoop=1;jettySize=auto;html=1;exitX=1;exitY=0.5;exitDx=0;exitDy=0;fontSize=18;" edge="1" parent="-d4rMKqaaEMEFj21faLV-1" source="-d4rMKqaaEMEFj21faLV-31" target="-d4rMKqaaEMEFj21faLV-33">
          
          <mxGeometry relative="1" as="geometry" />
          
        </mxCell>
        
        <mxCell id="-d4rMKqaaEMEFj21faLV-31" value="orders" style="rounded=0;whiteSpace=wrap;html=1;fontSize=18;fillColor=#f5f5f5;strokeColor=#666666;fontColor=#333333;fontStyle=1" vertex="1" parent="-d4rMKqaaEMEFj21faLV-1">
          
          <mxGeometry x="520" y="510" width="140" height="40" as="geometry" />
          
        </mxCell>
        
        <mxCell id="-d4rMKqaaEMEFj21faLV-32" style="edgeStyle=orthogonalEdgeStyle;rounded=0;orthogonalLoop=1;jettySize=auto;html=1;exitX=1;exitY=0.5;exitDx=0;exitDy=0;fontSize=18;" edge="1" parent="-d4rMKqaaEMEFj21faLV-1" source="-d4rMKqaaEMEFj21faLV-33" target="-d4rMKqaaEMEFj21faLV-35">
          
          <mxGeometry relative="1" as="geometry" />
          
        </mxCell>
        
        <mxCell id="-d4rMKqaaEMEFj21faLV-33" value="Build new image" style="rounded=0;whiteSpace=wrap;html=1;fontSize=18;fillColor=#f5f5f5;strokeColor=#666666;fontColor=#333333;fontStyle=1" vertex="1" parent="-d4rMKqaaEMEFj21faLV-1">
          
          <mxGeometry x="700" y="510" width="190" height="40" as="geometry" />
          
        </mxCell>
        
        <mxCell id="-d4rMKqaaEMEFj21faLV-34" style="edgeStyle=orthogonalEdgeStyle;rounded=0;orthogonalLoop=1;jettySize=auto;html=1;exitX=1;exitY=0.5;exitDx=0;exitDy=0;fontSize=18;" edge="1" parent="-d4rMKqaaEMEFj21faLV-1" source="-d4rMKqaaEMEFj21faLV-35" target="-d4rMKqaaEMEFj21faLV-36">
          
          <mxGeometry relative="1" as="geometry" />
          
        </mxCell>
        
        <mxCell id="-d4rMKqaaEMEFj21faLV-35" value="Push to docker hub" style="rounded=0;whiteSpace=wrap;html=1;fontSize=18;fillColor=#f5f5f5;strokeColor=#666666;fontColor=#333333;fontStyle=1" vertex="1" parent="-d4rMKqaaEMEFj21faLV-1">
          
          <mxGeometry x="930" y="510" width="190" height="40" as="geometry" />
          
        </mxCell>
        
        <mxCell id="-d4rMKqaaEMEFj21faLV-36" value="Update deployment" style="rounded=0;whiteSpace=wrap;html=1;fontSize=18;fillColor=#f5f5f5;strokeColor=#666666;fontColor=#333333;fontStyle=1" vertex="1" parent="-d4rMKqaaEMEFj21faLV-1">
          
          <mxGeometry x="1150" y="510" width="190" height="40" as="geometry" />
          
        </mxCell>
        
        <mxCell id="-d4rMKqaaEMEFj21faLV-37" style="edgeStyle=orthogonalEdgeStyle;rounded=0;orthogonalLoop=1;jettySize=auto;html=1;exitX=1;exitY=0.5;exitDx=0;exitDy=0;fontSize=18;" edge="1" parent="-d4rMKqaaEMEFj21faLV-1" source="-d4rMKqaaEMEFj21faLV-38" target="-d4rMKqaaEMEFj21faLV-40">
          
          <mxGeometry relative="1" as="geometry" />
          
        </mxCell>
        
        <mxCell id="-d4rMKqaaEMEFj21faLV-38" value="payments" style="rounded=0;whiteSpace=wrap;html=1;fontSize=18;fillColor=#f5f5f5;strokeColor=#666666;fontColor=#333333;fontStyle=1" vertex="1" parent="-d4rMKqaaEMEFj21faLV-1">
          
          <mxGeometry x="520" y="570" width="140" height="40" as="geometry" />
          
        </mxCell>
        
        <mxCell id="-d4rMKqaaEMEFj21faLV-39" style="edgeStyle=orthogonalEdgeStyle;rounded=0;orthogonalLoop=1;jettySize=auto;html=1;exitX=1;exitY=0.5;exitDx=0;exitDy=0;fontSize=18;" edge="1" parent="-d4rMKqaaEMEFj21faLV-1" source="-d4rMKqaaEMEFj21faLV-40" target="-d4rMKqaaEMEFj21faLV-42">
          
          <mxGeometry relative="1" as="geometry" />
          
        </mxCell>
        
        <mxCell id="-d4rMKqaaEMEFj21faLV-40" value="Build new image" style="rounded=0;whiteSpace=wrap;html=1;fontSize=18;fillColor=#f5f5f5;strokeColor=#666666;fontColor=#333333;fontStyle=1" vertex="1" parent="-d4rMKqaaEMEFj21faLV-1">
          
          <mxGeometry x="700" y="570" width="190" height="40" as="geometry" />
          
        </mxCell>
        
        <mxCell id="-d4rMKqaaEMEFj21faLV-41" style="edgeStyle=orthogonalEdgeStyle;rounded=0;orthogonalLoop=1;jettySize=auto;html=1;exitX=1;exitY=0.5;exitDx=0;exitDy=0;fontSize=18;" edge="1" parent="-d4rMKqaaEMEFj21faLV-1" source="-d4rMKqaaEMEFj21faLV-42" target="-d4rMKqaaEMEFj21faLV-43">
          
          <mxGeometry relative="1" as="geometry" />
          
        </mxCell>
        
        <mxCell id="-d4rMKqaaEMEFj21faLV-42" value="Push to docker hub" style="rounded=0;whiteSpace=wrap;html=1;fontSize=18;fillColor=#f5f5f5;strokeColor=#666666;fontColor=#333333;fontStyle=1" vertex="1" parent="-d4rMKqaaEMEFj21faLV-1">
          
          <mxGeometry x="930" y="570" width="190" height="40" as="geometry" />
          
        </mxCell>
        
        <mxCell id="-d4rMKqaaEMEFj21faLV-43" value="Update deployment" style="rounded=0;whiteSpace=wrap;html=1;fontSize=18;fillColor=#f5f5f5;strokeColor=#666666;fontColor=#333333;fontStyle=1" vertex="1" parent="-d4rMKqaaEMEFj21faLV-1">
          
          <mxGeometry x="1150" y="570" width="190" height="40" as="geometry" />
          
        </mxCell>
        
        <mxCell id="-d4rMKqaaEMEFj21faLV-45" style="edgeStyle=orthogonalEdgeStyle;rounded=0;orthogonalLoop=1;jettySize=auto;html=1;exitX=0.5;exitY=1;exitDx=0;exitDy=0;entryX=0.5;entryY=0;entryDx=0;entryDy=0;fontSize=18;" edge="1" parent="-d4rMKqaaEMEFj21faLV-1" source="-d4rMKqaaEMEFj21faLV-44" target="-d4rMKqaaEMEFj21faLV-2">
          
          <mxGeometry relative="1" as="geometry" />
          
        </mxCell>
        
        <mxCell id="-d4rMKqaaEMEFj21faLV-44" value="Did anything in this folder change?" style="rounded=0;whiteSpace=wrap;html=1;fontSize=18;fillColor=#dae8fc;strokeColor=#6c8ebf;fontStyle=1" vertex="1" parent="-d4rMKqaaEMEFj21faLV-1">
          
          <mxGeometry x="490" y="200" width="200" height="50" as="geometry" />
          
        </mxCell>
        
        <mxCell id="-d4rMKqaaEMEFj21faLV-47" style="edgeStyle=orthogonalEdgeStyle;rounded=0;orthogonalLoop=1;jettySize=auto;html=1;exitX=1;exitY=0.5;exitDx=0;exitDy=0;fontSize=18;" edge="1" parent="-d4rMKqaaEMEFj21faLV-1" source="-d4rMKqaaEMEFj21faLV-46">
          
          <mxGeometry relative="1" as="geometry">
            
            <mxPoint x="700" y="650" as="targetPoint" />
            
          </mxGeometry>
          
        </mxCell>
        
        <mxCell id="-d4rMKqaaEMEFj21faLV-46" value="infra" style="rounded=0;whiteSpace=wrap;html=1;fontSize=18;fillColor=#f5f5f5;strokeColor=#666666;fontColor=#333333;fontStyle=1" vertex="1" parent="-d4rMKqaaEMEFj21faLV-1">
          
          <mxGeometry x="520" y="630" width="140" height="40" as="geometry" />
          
        </mxCell>
        
        <mxCell id="-d4rMKqaaEMEFj21faLV-48" value="Apply all yaml files" style="rounded=0;whiteSpace=wrap;html=1;fontSize=18;fillColor=#f5f5f5;strokeColor=#666666;fontColor=#333333;fontStyle=1" vertex="1" parent="-d4rMKqaaEMEFj21faLV-1">
          
          <mxGeometry x="700" y="630" width="190" height="40" as="geometry" />
          
        </mxCell>
        
      </root>
      
    </mxGraphModel>
    
  </diagram>
  <diagram id="YpeLgkzhoF07ijafrhyh" name="11 - cc">
    
    <mxGraphModel dx="834" dy="411" grid="1" gridSize="10" guides="1" tooltips="1" connect="1" arrows="1" fold="1" page="1" pageScale="1" pageWidth="1920" pageHeight="1200" math="0" shadow="0">
      
      <root>
        
        <mxCell id="tyKFqwg1QpcdUcJDe8qd-0" />
        
        <mxCell id="tyKFqwg1QpcdUcJDe8qd-1" parent="tyKFqwg1QpcdUcJDe8qd-0" />
        
        <mxCell id="tyKFqwg1QpcdUcJDe8qd-4" style="edgeStyle=orthogonalEdgeStyle;rounded=0;orthogonalLoop=1;jettySize=auto;html=1;exitX=0.5;exitY=1;exitDx=0;exitDy=0;fontSize=27;" edge="1" parent="tyKFqwg1QpcdUcJDe8qd-1" source="tyKFqwg1QpcdUcJDe8qd-2" target="tyKFqwg1QpcdUcJDe8qd-3">
          
          <mxGeometry relative="1" as="geometry" />
          
        </mxCell>
        
        <mxCell id="tyKFqwg1QpcdUcJDe8qd-2" value="A credit card will be required to move forward" style="rounded=0;whiteSpace=wrap;html=1;fontSize=27;fillColor=#fff2cc;strokeColor=#d6b656;" vertex="1" parent="tyKFqwg1QpcdUcJDe8qd-1">
          
          <mxGeometry x="540" y="230" width="520" height="110" as="geometry" />
          
        </mxCell>
        
        <mxCell id="_NA33KMQRvZnY95QnVXg-1" style="edgeStyle=orthogonalEdgeStyle;rounded=0;orthogonalLoop=1;jettySize=auto;html=1;exitX=0.5;exitY=1;exitDx=0;exitDy=0;fontSize=27;" edge="1" parent="tyKFqwg1QpcdUcJDe8qd-1" source="tyKFqwg1QpcdUcJDe8qd-3" target="_NA33KMQRvZnY95QnVXg-0">
          
          <mxGeometry relative="1" as="geometry" />
          
        </mxCell>
        
        <mxCell id="tyKFqwg1QpcdUcJDe8qd-3" value="$1 for a domain name, $0.72 a day to run the cluster" style="rounded=0;whiteSpace=wrap;html=1;fontSize=27;fillColor=#fff2cc;strokeColor=#d6b656;" vertex="1" parent="tyKFqwg1QpcdUcJDe8qd-1">
          
          <mxGeometry x="540" y="380" width="520" height="110" as="geometry" />
          
        </mxCell>
        
        <mxCell id="_NA33KMQRvZnY95QnVXg-0" value="You can probably find a coupon code to pay $0 for the cluster" style="rounded=0;whiteSpace=wrap;html=1;fontSize=27;fillColor=#fff2cc;strokeColor=#d6b656;" vertex="1" parent="tyKFqwg1QpcdUcJDe8qd-1">
          
          <mxGeometry x="540" y="530" width="520" height="110" as="geometry" />
          
        </mxCell>
        
      </root>
      
    </mxGraphModel>
    
  </diagram>
  <diagram id="EYdFLrLVPCNJwGM6SzHZ" name="10 - do">
    <mxGraphModel dx="1502" dy="739" grid="1" gridSize="10" guides="1" tooltips="1" connect="1" arrows="1" fold="1" page="1" pageScale="1" pageWidth="1920" pageHeight="1200" math="0" shadow="0">
      <root>
        <mxCell id="7T7ClikBGXCK0gkD6NKV-0" />
        <mxCell id="7T7ClikBGXCK0gkD6NKV-1" parent="7T7ClikBGXCK0gkD6NKV-0" />
        <mxCell id="7T7ClikBGXCK0gkD6NKV-2" value="Digital Ocean" style="rounded=0;whiteSpace=wrap;html=1;fontSize=18;fontStyle=1;fillColor=#dae8fc;strokeColor=#6c8ebf;" parent="7T7ClikBGXCK0gkD6NKV-1" vertex="1">
          <mxGeometry x="410" y="420" width="200" height="50" as="geometry" />
        </mxCell>
        <mxCell id="7T7ClikBGXCK0gkD6NKV-7" value="$40/month" style="rounded=0;whiteSpace=wrap;html=1;fontSize=18;fillColor=#d5e8d4;strokeColor=#82b366;" parent="7T7ClikBGXCK0gkD6NKV-1" vertex="1">
          <mxGeometry x="410" y="490" width="200" height="50" as="geometry" />
        </mxCell>
        <mxCell id="7T7ClikBGXCK0gkD6NKV-14" value="&lt;i&gt;Really&lt;/i&gt;&amp;nbsp;easy to use" style="rounded=0;whiteSpace=wrap;html=1;fontSize=18;fillColor=#d5e8d4;strokeColor=#82b366;" parent="7T7ClikBGXCK0gkD6NKV-1" vertex="1">
          <mxGeometry x="410" y="550" width="200" height="50" as="geometry" />
        </mxCell>
      </root>
    </mxGraphModel>
  </diagram>
  <diagram id="oHirUIyhnFocdtnLpsVc" name="13 - kubectl">
    
    <mxGraphModel dx="715" dy="352" grid="1" gridSize="10" guides="1" tooltips="1" connect="1" arrows="1" fold="1" page="1" pageScale="1" pageWidth="1920" pageHeight="1200" math="0" shadow="0">
      
      <root>
        
        <mxCell id="Tnd4Kv4PXmJYC-BbwApR-0" />
        
        <mxCell id="Tnd4Kv4PXmJYC-BbwApR-1" parent="Tnd4Kv4PXmJYC-BbwApR-0" />
        
        <mxCell id="Tnd4Kv4PXmJYC-BbwApR-5" style="edgeStyle=orthogonalEdgeStyle;rounded=0;orthogonalLoop=1;jettySize=auto;html=1;exitX=1;exitY=0.5;exitDx=0;exitDy=0;entryX=0;entryY=0.5;entryDx=0;entryDy=0;fontSize=17;" edge="1" parent="Tnd4Kv4PXmJYC-BbwApR-1" source="Tnd4Kv4PXmJYC-BbwApR-2" target="Tnd4Kv4PXmJYC-BbwApR-3">
          
          <mxGeometry relative="1" as="geometry" />
          
        </mxCell>
        
        <mxCell id="Tnd4Kv4PXmJYC-BbwApR-6" style="edgeStyle=orthogonalEdgeStyle;rounded=0;orthogonalLoop=1;jettySize=auto;html=1;exitX=1;exitY=0.5;exitDx=0;exitDy=0;entryX=0;entryY=0.5;entryDx=0;entryDy=0;fontSize=17;" edge="1" parent="Tnd4Kv4PXmJYC-BbwApR-1" source="Tnd4Kv4PXmJYC-BbwApR-2" target="Tnd4Kv4PXmJYC-BbwApR-4">
          
          <mxGeometry relative="1" as="geometry" />
          
        </mxCell>
        
        <mxCell id="Tnd4Kv4PXmJYC-BbwApR-2" value="kubectl" style="rounded=0;whiteSpace=wrap;html=1;fontSize=17;fillColor=#dae8fc;strokeColor=#6c8ebf;fontStyle=1" vertex="1" parent="Tnd4Kv4PXmJYC-BbwApR-1">
          
          <mxGeometry x="520" y="330" width="120" height="60" as="geometry" />
          
        </mxCell>
        
        <mxCell id="Tnd4Kv4PXmJYC-BbwApR-8" style="edgeStyle=orthogonalEdgeStyle;rounded=0;orthogonalLoop=1;jettySize=auto;html=1;exitX=1;exitY=0.5;exitDx=0;exitDy=0;fontSize=17;" edge="1" parent="Tnd4Kv4PXmJYC-BbwApR-1" source="Tnd4Kv4PXmJYC-BbwApR-3" target="Tnd4Kv4PXmJYC-BbwApR-7">
          
          <mxGeometry relative="1" as="geometry" />
          
        </mxCell>
        
        <mxCell id="Tnd4Kv4PXmJYC-BbwApR-3" value="docker desktop context" style="rounded=0;whiteSpace=wrap;html=1;fontSize=17;fillColor=#dae8fc;strokeColor=#6c8ebf;fontStyle=1" vertex="1" parent="Tnd4Kv4PXmJYC-BbwApR-1">
          
          <mxGeometry x="710" y="250" width="170" height="60" as="geometry" />
          
        </mxCell>
        
        <mxCell id="Tnd4Kv4PXmJYC-BbwApR-10" style="edgeStyle=orthogonalEdgeStyle;rounded=0;orthogonalLoop=1;jettySize=auto;html=1;exitX=1;exitY=0.5;exitDx=0;exitDy=0;fontSize=17;" edge="1" parent="Tnd4Kv4PXmJYC-BbwApR-1" source="Tnd4Kv4PXmJYC-BbwApR-4" target="Tnd4Kv4PXmJYC-BbwApR-9">
          
          <mxGeometry relative="1" as="geometry" />
          
        </mxCell>
        
        <mxCell id="Tnd4Kv4PXmJYC-BbwApR-4" value="digital ocean context" style="rounded=0;whiteSpace=wrap;html=1;fontSize=17;fillColor=#dae8fc;strokeColor=#6c8ebf;fontStyle=1" vertex="1" parent="Tnd4Kv4PXmJYC-BbwApR-1">
          
          <mxGeometry x="710" y="400" width="170" height="60" as="geometry" />
          
        </mxCell>
        
        <mxCell id="Tnd4Kv4PXmJYC-BbwApR-7" value="Local Cluster" style="rounded=0;whiteSpace=wrap;html=1;fontSize=17;fillColor=#dae8fc;strokeColor=#6c8ebf;fontStyle=1" vertex="1" parent="Tnd4Kv4PXmJYC-BbwApR-1">
          
          <mxGeometry x="930" y="250" width="170" height="60" as="geometry" />
          
        </mxCell>
        
        <mxCell id="Tnd4Kv4PXmJYC-BbwApR-9" value="Digital Ocean Cluster" style="rounded=0;whiteSpace=wrap;html=1;fontSize=17;fillColor=#dae8fc;strokeColor=#6c8ebf;fontStyle=1" vertex="1" parent="Tnd4Kv4PXmJYC-BbwApR-1">
          
          <mxGeometry x="930" y="400" width="170" height="60" as="geometry" />
          
        </mxCell>
        
      </root>
      
    </mxGraphModel>
    
  </diagram>
  <diagram id="RKMcVDe7gnTRzugWOhWF" name="12 - list">
    
    <mxGraphModel dx="715" dy="352" grid="1" gridSize="10" guides="1" tooltips="1" connect="1" arrows="1" fold="1" page="1" pageScale="1" pageWidth="1920" pageHeight="1200" math="0" shadow="0">
      
      <root>
        
        <mxCell id="CNazd8F2MQIFPEwigOSN-0" />
        
        <mxCell id="CNazd8F2MQIFPEwigOSN-1" parent="CNazd8F2MQIFPEwigOSN-0" />
        
        <mxCell id="CNazd8F2MQIFPEwigOSN-2" value="doctl auth init" style="rounded=0;whiteSpace=wrap;html=1;fontSize=17;fillColor=#dae8fc;strokeColor=#6c8ebf;" vertex="1" parent="CNazd8F2MQIFPEwigOSN-1">
          
          <mxGeometry x="550" y="260" width="500" height="60" as="geometry" />
          
        </mxCell>
        
        <mxCell id="CNazd8F2MQIFPEwigOSN-3" value="Authenticating with Doctl" style="text;html=1;strokeColor=none;fillColor=none;align=center;verticalAlign=middle;whiteSpace=wrap;rounded=0;fontSize=19;fontStyle=1" vertex="1" parent="CNazd8F2MQIFPEwigOSN-1">
          
          <mxGeometry x="635" y="235" width="330" height="20" as="geometry" />
          
        </mxCell>
        
        <mxCell id="CNazd8F2MQIFPEwigOSN-4" value="doctl kubernetes cluster kubeconfig save &amp;lt;cluster_name&amp;gt;" style="rounded=0;whiteSpace=wrap;html=1;fontSize=17;fillColor=#dae8fc;strokeColor=#6c8ebf;" vertex="1" parent="CNazd8F2MQIFPEwigOSN-1">
          
          <mxGeometry x="550" y="365" width="500" height="60" as="geometry" />
          
        </mxCell>
        
        <mxCell id="CNazd8F2MQIFPEwigOSN-5" value="Get connection info for our new cluster" style="text;html=1;strokeColor=none;fillColor=none;align=center;verticalAlign=middle;whiteSpace=wrap;rounded=0;fontSize=19;fontStyle=1" vertex="1" parent="CNazd8F2MQIFPEwigOSN-1">
          
          <mxGeometry x="592.5" y="340" width="415" height="20" as="geometry" />
          
        </mxCell>
        
        <mxCell id="CNazd8F2MQIFPEwigOSN-6" value="kubectl config view" style="rounded=0;whiteSpace=wrap;html=1;fontSize=17;fillColor=#dae8fc;strokeColor=#6c8ebf;" vertex="1" parent="CNazd8F2MQIFPEwigOSN-1">
          
          <mxGeometry x="550" y="475" width="500" height="60" as="geometry" />
          
        </mxCell>
        
        <mxCell id="CNazd8F2MQIFPEwigOSN-7" value="List all contexts" style="text;html=1;strokeColor=none;fillColor=none;align=center;verticalAlign=middle;whiteSpace=wrap;rounded=0;fontSize=19;fontStyle=1" vertex="1" parent="CNazd8F2MQIFPEwigOSN-1">
          
          <mxGeometry x="592.5" y="450" width="415" height="20" as="geometry" />
          
        </mxCell>
        
        <mxCell id="CNazd8F2MQIFPEwigOSN-8" value="kubectl config use-context &amp;lt;context_name&amp;gt;" style="rounded=0;whiteSpace=wrap;html=1;fontSize=17;fillColor=#dae8fc;strokeColor=#6c8ebf;" vertex="1" parent="CNazd8F2MQIFPEwigOSN-1">
          
          <mxGeometry x="550" y="583" width="500" height="60" as="geometry" />
          
        </mxCell>
        
        <mxCell id="CNazd8F2MQIFPEwigOSN-9" value="Use a different context" style="text;html=1;strokeColor=none;fillColor=none;align=center;verticalAlign=middle;whiteSpace=wrap;rounded=0;fontSize=19;fontStyle=1" vertex="1" parent="CNazd8F2MQIFPEwigOSN-1">
          
          <mxGeometry x="592.5" y="558" width="415" height="20" as="geometry" />
          
        </mxCell>
        
      </root>
      
    </mxGraphModel>
    
  </diagram>
  <diagram id="IPZ2XFOXK7Qxn5xJQuC5" name="14 - container">
    <mxGraphModel dx="1502" dy="739" grid="0" gridSize="10" guides="1" tooltips="1" connect="1" arrows="1" fold="1" page="1" pageScale="1" pageWidth="1920" pageHeight="1200" math="0" shadow="0">
      <root>
        <mxCell id="SD3k7MseuTE_-p3VJbUQ-0" />
        <mxCell id="SD3k7MseuTE_-p3VJbUQ-1" parent="SD3k7MseuTE_-p3VJbUQ-0" />
        <mxCell id="SD3k7MseuTE_-p3VJbUQ-2" value="Github Container" style="rounded=0;whiteSpace=wrap;html=1;fontSize=17;fontStyle=1;fillColor=#f5f5f5;strokeColor=#666666;fontColor=#333333;" parent="SD3k7MseuTE_-p3VJbUQ-1" vertex="1">
          <mxGeometry x="430" y="230" width="215" height="30" as="geometry" />
        </mxCell>
        <mxCell id="SD3k7MseuTE_-p3VJbUQ-3" value="" style="rounded=0;whiteSpace=wrap;html=1;fontSize=17;fontStyle=1;fillColor=#f5f5f5;strokeColor=#666666;fontColor=#333333;" parent="SD3k7MseuTE_-p3VJbUQ-1" vertex="1">
          <mxGeometry x="430" y="260" width="215" height="190" as="geometry" />
        </mxCell>
        <mxCell id="SD3k7MseuTE_-p3VJbUQ-4" value="kubectl" style="rounded=0;whiteSpace=wrap;html=1;fontSize=17;" parent="SD3k7MseuTE_-p3VJbUQ-1" vertex="1">
          <mxGeometry x="477.5" y="393" width="120" height="41" as="geometry" />
        </mxCell>
        <mxCell id="SD3k7MseuTE_-p3VJbUQ-5" value="Digital Ocean" style="rounded=0;whiteSpace=wrap;html=1;fontSize=17;fontStyle=1;fillColor=#f5f5f5;strokeColor=#666666;fontColor=#333333;" parent="SD3k7MseuTE_-p3VJbUQ-1" vertex="1">
          <mxGeometry x="709" y="230" width="210" height="30" as="geometry" />
        </mxCell>
        <mxCell id="SD3k7MseuTE_-p3VJbUQ-6" value="" style="rounded=0;whiteSpace=wrap;html=1;fontSize=17;fontStyle=1;fillColor=#f5f5f5;strokeColor=#666666;fontColor=#333333;" parent="SD3k7MseuTE_-p3VJbUQ-1" vertex="1">
          <mxGeometry x="709" y="260" width="210" height="190" as="geometry" />
        </mxCell>
        <mxCell id="SD3k7MseuTE_-p3VJbUQ-7" value="Our Cluster" style="rounded=0;whiteSpace=wrap;html=1;fontSize=17;fillColor=#dae8fc;strokeColor=#6c8ebf;" parent="SD3k7MseuTE_-p3VJbUQ-1" vertex="1">
          <mxGeometry x="754" y="325" width="120" height="60" as="geometry" />
        </mxCell>
        <mxCell id="SD3k7MseuTE_-p3VJbUQ-11" style="edgeStyle=orthogonalEdgeStyle;rounded=0;orthogonalLoop=1;jettySize=auto;html=1;exitX=0.5;exitY=1;exitDx=0;exitDy=0;fontSize=17;" parent="SD3k7MseuTE_-p3VJbUQ-1" source="SD3k7MseuTE_-p3VJbUQ-9" target="SD3k7MseuTE_-p3VJbUQ-10" edge="1">
          <mxGeometry relative="1" as="geometry" />
        </mxCell>
        <mxCell id="SD3k7MseuTE_-p3VJbUQ-9" value="doctl" style="rounded=0;whiteSpace=wrap;html=1;fontSize=17;" parent="SD3k7MseuTE_-p3VJbUQ-1" vertex="1">
          <mxGeometry x="477.5" y="276" width="120" height="41" as="geometry" />
        </mxCell>
        <mxCell id="SD3k7MseuTE_-p3VJbUQ-12" style="edgeStyle=orthogonalEdgeStyle;rounded=0;orthogonalLoop=1;jettySize=auto;html=1;exitX=0.5;exitY=1;exitDx=0;exitDy=0;entryX=0.5;entryY=0;entryDx=0;entryDy=0;fontSize=17;" parent="SD3k7MseuTE_-p3VJbUQ-1" source="SD3k7MseuTE_-p3VJbUQ-10" target="SD3k7MseuTE_-p3VJbUQ-4" edge="1">
          <mxGeometry relative="1" as="geometry" />
        </mxCell>
        <mxCell id="SD3k7MseuTE_-p3VJbUQ-10" value="context" style="rounded=0;whiteSpace=wrap;html=1;fontSize=17;" parent="SD3k7MseuTE_-p3VJbUQ-1" vertex="1">
          <mxGeometry x="477.5" y="334.5" width="120" height="41" as="geometry" />
        </mxCell>
        <mxCell id="SD3k7MseuTE_-p3VJbUQ-13" style="edgeStyle=orthogonalEdgeStyle;rounded=0;orthogonalLoop=1;jettySize=auto;html=1;exitX=1;exitY=0.5;exitDx=0;exitDy=0;entryX=0;entryY=0.5;entryDx=0;entryDy=0;fontSize=17;" parent="SD3k7MseuTE_-p3VJbUQ-1" source="SD3k7MseuTE_-p3VJbUQ-4" target="SD3k7MseuTE_-p3VJbUQ-7" edge="1">
          <mxGeometry relative="1" as="geometry" />
        </mxCell>
      </root>
    </mxGraphModel>
  </diagram>
  <diagram id="EU4xPMVmZkF5aGjpy1-d" name="15 - domain">
    <mxGraphModel dx="715" dy="352" grid="1" gridSize="10" guides="1" tooltips="1" connect="1" arrows="1" fold="1" page="1" pageScale="1" pageWidth="1920" pageHeight="1200" math="0" shadow="0">
      <root>
        <mxCell id="zxTWonX81qnd23f6hEx2-0" />
        <mxCell id="zxTWonX81qnd23f6hEx2-1" parent="zxTWonX81qnd23f6hEx2-0" />
        <mxCell id="6xFn6Fst8IlOmxMCrw3W-0" value="Digital Ocean" style="rounded=0;whiteSpace=wrap;html=1;fontSize=17;fontStyle=1;fillColor=#f5f5f5;strokeColor=#666666;fontColor=#333333;" vertex="1" parent="zxTWonX81qnd23f6hEx2-1">
          <mxGeometry x="830" y="230" width="400" height="30" as="geometry" />
        </mxCell>
        <mxCell id="6xFn6Fst8IlOmxMCrw3W-1" value="" style="rounded=0;whiteSpace=wrap;html=1;fontSize=17;fontStyle=1;fillColor=#f5f5f5;strokeColor=#666666;fontColor=#333333;" vertex="1" parent="zxTWonX81qnd23f6hEx2-1">
          <mxGeometry x="830" y="260" width="400" height="190" as="geometry" />
        </mxCell>
        <mxCell id="6xFn6Fst8IlOmxMCrw3W-2" value="Our Cluster" style="rounded=0;whiteSpace=wrap;html=1;fontSize=17;fillColor=#dae8fc;strokeColor=#6c8ebf;" vertex="1" parent="zxTWonX81qnd23f6hEx2-1">
          <mxGeometry x="980" y="270" width="240" height="30" as="geometry" />
        </mxCell>
        <mxCell id="6xFn6Fst8IlOmxMCrw3W-3" value="" style="rounded=0;whiteSpace=wrap;html=1;fontSize=17;fillColor=#dae8fc;strokeColor=#6c8ebf;" vertex="1" parent="zxTWonX81qnd23f6hEx2-1">
          <mxGeometry x="980" y="300" width="240" height="140" as="geometry" />
        </mxCell>
        <mxCell id="6xFn6Fst8IlOmxMCrw3W-4" value="Node 1" style="rounded=0;whiteSpace=wrap;html=1;" vertex="1" parent="zxTWonX81qnd23f6hEx2-1">
          <mxGeometry x="1020" y="315" width="160" height="30" as="geometry" />
        </mxCell>
        <mxCell id="6xFn6Fst8IlOmxMCrw3W-5" value="Node 2" style="rounded=0;whiteSpace=wrap;html=1;" vertex="1" parent="zxTWonX81qnd23f6hEx2-1">
          <mxGeometry x="1020" y="355" width="160" height="30" as="geometry" />
        </mxCell>
        <mxCell id="6xFn6Fst8IlOmxMCrw3W-6" value="Node 3" style="rounded=0;whiteSpace=wrap;html=1;" vertex="1" parent="zxTWonX81qnd23f6hEx2-1">
          <mxGeometry x="1020" y="395" width="160" height="30" as="geometry" />
        </mxCell>
        <mxCell id="6xFn6Fst8IlOmxMCrw3W-11" style="edgeStyle=orthogonalEdgeStyle;rounded=0;orthogonalLoop=1;jettySize=auto;html=1;exitX=1;exitY=0.5;exitDx=0;exitDy=0;fontSize=12;" edge="1" parent="zxTWonX81qnd23f6hEx2-1" source="6xFn6Fst8IlOmxMCrw3W-7" target="6xFn6Fst8IlOmxMCrw3W-4">
          <mxGeometry relative="1" as="geometry" />
        </mxCell>
        <mxCell id="6xFn6Fst8IlOmxMCrw3W-12" style="edgeStyle=orthogonalEdgeStyle;rounded=0;orthogonalLoop=1;jettySize=auto;html=1;exitX=1;exitY=0.5;exitDx=0;exitDy=0;fontSize=12;" edge="1" parent="zxTWonX81qnd23f6hEx2-1" source="6xFn6Fst8IlOmxMCrw3W-7" target="6xFn6Fst8IlOmxMCrw3W-5">
          <mxGeometry relative="1" as="geometry" />
        </mxCell>
        <mxCell id="6xFn6Fst8IlOmxMCrw3W-13" style="edgeStyle=orthogonalEdgeStyle;rounded=0;orthogonalLoop=1;jettySize=auto;html=1;exitX=1;exitY=0.5;exitDx=0;exitDy=0;fontSize=12;" edge="1" parent="zxTWonX81qnd23f6hEx2-1" source="6xFn6Fst8IlOmxMCrw3W-7" target="6xFn6Fst8IlOmxMCrw3W-6">
          <mxGeometry relative="1" as="geometry" />
        </mxCell>
        <mxCell id="6xFn6Fst8IlOmxMCrw3W-7" value="Load Balancer" style="rounded=0;whiteSpace=wrap;html=1;fontStyle=1;fontSize=18;" vertex="1" parent="zxTWonX81qnd23f6hEx2-1">
          <mxGeometry x="830" y="340" width="120" height="60" as="geometry" />
        </mxCell>
        <mxCell id="6xFn6Fst8IlOmxMCrw3W-9" style="edgeStyle=orthogonalEdgeStyle;rounded=0;orthogonalLoop=1;jettySize=auto;html=1;exitX=1;exitY=0.5;exitDx=0;exitDy=0;fontSize=18;" edge="1" parent="zxTWonX81qnd23f6hEx2-1" source="6xFn6Fst8IlOmxMCrw3W-8" target="6xFn6Fst8IlOmxMCrw3W-7">
          <mxGeometry relative="1" as="geometry" />
        </mxCell>
        <mxCell id="6xFn6Fst8IlOmxMCrw3W-8" value="my-ticketing-app.com" style="rounded=0;whiteSpace=wrap;html=1;fontStyle=1;fontSize=18;" vertex="1" parent="zxTWonX81qnd23f6hEx2-1">
          <mxGeometry x="550" y="340" width="200" height="60" as="geometry" />
        </mxCell>
        <mxCell id="6xFn6Fst8IlOmxMCrw3W-10" value="138.197.237.91" style="text;html=1;strokeColor=none;fillColor=none;align=center;verticalAlign=middle;whiteSpace=wrap;rounded=0;fontSize=12;" vertex="1" parent="zxTWonX81qnd23f6hEx2-1">
          <mxGeometry x="870" y="400" width="40" height="20" as="geometry" />
        </mxCell>
      </root>
    </mxGraphModel>
  </diagram>
  <diagram id="T6hMjBv_ia1nqmqqppS4" name="16 - steps">
    <mxGraphModel dx="699" dy="344" grid="1" gridSize="10" guides="1" tooltips="1" connect="1" arrows="1" fold="1" page="1" pageScale="1" pageWidth="1920" pageHeight="1200" math="0" shadow="0">
      <root>
        <mxCell id="rRKl4mI_5EDB2Ea-mJyK-0" />
        <mxCell id="rRKl4mI_5EDB2Ea-mJyK-1" parent="rRKl4mI_5EDB2Ea-mJyK-0" />
        <mxCell id="rRKl4mI_5EDB2Ea-mJyK-4" style="edgeStyle=orthogonalEdgeStyle;rounded=0;orthogonalLoop=1;jettySize=auto;html=1;exitX=1;exitY=0.5;exitDx=0;exitDy=0;fontSize=17;" edge="1" parent="rRKl4mI_5EDB2Ea-mJyK-1" source="rRKl4mI_5EDB2Ea-mJyK-2" target="rRKl4mI_5EDB2Ea-mJyK-3">
          <mxGeometry relative="1" as="geometry" />
        </mxCell>
        <mxCell id="rRKl4mI_5EDB2Ea-mJyK-2" value="Add in HTTPS&amp;nbsp;" style="rounded=0;whiteSpace=wrap;html=1;fontSize=17;fontStyle=1;fillColor=#dae8fc;strokeColor=#6c8ebf;" vertex="1" parent="rRKl4mI_5EDB2Ea-mJyK-1">
          <mxGeometry x="480" y="260" width="170" height="60" as="geometry" />
        </mxCell>
        <mxCell id="rRKl4mI_5EDB2Ea-mJyK-3" value="See cert-manager.io" style="rounded=0;whiteSpace=wrap;html=1;fontSize=14;fontStyle=0;" vertex="1" parent="rRKl4mI_5EDB2Ea-mJyK-1">
          <mxGeometry x="680" y="260" width="450" height="60" as="geometry" />
        </mxCell>
        <mxCell id="rRKl4mI_5EDB2Ea-mJyK-5" style="edgeStyle=orthogonalEdgeStyle;rounded=0;orthogonalLoop=1;jettySize=auto;html=1;exitX=1;exitY=0.5;exitDx=0;exitDy=0;fontSize=17;" edge="1" parent="rRKl4mI_5EDB2Ea-mJyK-1" source="rRKl4mI_5EDB2Ea-mJyK-6" target="rRKl4mI_5EDB2Ea-mJyK-7">
          <mxGeometry relative="1" as="geometry" />
        </mxCell>
        <mxCell id="rRKl4mI_5EDB2Ea-mJyK-6" value="Add in Email Support" style="rounded=0;whiteSpace=wrap;html=1;fontSize=17;fontStyle=1;fillColor=#dae8fc;strokeColor=#6c8ebf;" vertex="1" parent="rRKl4mI_5EDB2Ea-mJyK-1">
          <mxGeometry x="480" y="330" width="170" height="60" as="geometry" />
        </mxCell>
        <mxCell id="rRKl4mI_5EDB2Ea-mJyK-7" value="Send a user an email after they have paid for an order.&amp;nbsp; Create a new service using Mailchimp/Sendgrid/similar" style="rounded=0;whiteSpace=wrap;html=1;fontSize=14;fontStyle=0;" vertex="1" parent="rRKl4mI_5EDB2Ea-mJyK-1">
          <mxGeometry x="680" y="330" width="450" height="60" as="geometry" />
        </mxCell>
        <mxCell id="rRKl4mI_5EDB2Ea-mJyK-8" style="edgeStyle=orthogonalEdgeStyle;rounded=0;orthogonalLoop=1;jettySize=auto;html=1;exitX=1;exitY=0.5;exitDx=0;exitDy=0;fontSize=17;" edge="1" parent="rRKl4mI_5EDB2Ea-mJyK-1" source="rRKl4mI_5EDB2Ea-mJyK-9" target="rRKl4mI_5EDB2Ea-mJyK-10">
          <mxGeometry relative="1" as="geometry" />
        </mxCell>
        <mxCell id="rRKl4mI_5EDB2Ea-mJyK-9" value="Add in &#39;build&#39; steps for our prod cluster" style="rounded=0;whiteSpace=wrap;html=1;fontSize=17;fontStyle=1;fillColor=#dae8fc;strokeColor=#6c8ebf;" vertex="1" parent="rRKl4mI_5EDB2Ea-mJyK-1">
          <mxGeometry x="480" y="400" width="170" height="60" as="geometry" />
        </mxCell>
        <mxCell id="rRKl4mI_5EDB2Ea-mJyK-10" value="Right now we are still running our services + the client in &#39;dev&#39; mode.&amp;nbsp; Add in additional Dockerfiles to build each service prior to deployment" style="rounded=0;whiteSpace=wrap;html=1;fontSize=14;fontStyle=0;" vertex="1" parent="rRKl4mI_5EDB2Ea-mJyK-1">
          <mxGeometry x="680" y="400" width="450" height="60" as="geometry" />
        </mxCell>
        <mxCell id="rRKl4mI_5EDB2Ea-mJyK-11" style="edgeStyle=orthogonalEdgeStyle;rounded=0;orthogonalLoop=1;jettySize=auto;html=1;exitX=1;exitY=0.5;exitDx=0;exitDy=0;fontSize=17;" edge="1" parent="rRKl4mI_5EDB2Ea-mJyK-1" source="rRKl4mI_5EDB2Ea-mJyK-12" target="rRKl4mI_5EDB2Ea-mJyK-13">
          <mxGeometry relative="1" as="geometry" />
        </mxCell>
        <mxCell id="rRKl4mI_5EDB2Ea-mJyK-12" value="Create a staging cluster" style="rounded=0;whiteSpace=wrap;html=1;fontSize=17;fontStyle=1;fillColor=#dae8fc;strokeColor=#6c8ebf;" vertex="1" parent="rRKl4mI_5EDB2Ea-mJyK-1">
          <mxGeometry x="480" y="470" width="170" height="60" as="geometry" />
        </mxCell>
        <mxCell id="rRKl4mI_5EDB2Ea-mJyK-13" value="Our teammates might want to test out our app manually before we deploy it.&amp;nbsp; Maybe we could add in a new Github workflow to watch for pushes to a new branch of &#39;staging&#39;.&amp;nbsp; Create a new cluster that you will deploy to when you push to this branch" style="rounded=0;whiteSpace=wrap;html=1;fontSize=12;fontStyle=0;" vertex="1" parent="rRKl4mI_5EDB2Ea-mJyK-1">
          <mxGeometry x="680" y="470" width="450" height="60" as="geometry" />
        </mxCell>
      </root>
    </mxGraphModel>
  </diagram>
</mxfile>
